<svg width="185" height="54" viewBox="0 0 185 54" fill="none" xmlns="http://www.w3.org/2000/svg">
<path d="M71.3712 38.2857C69.9427 38.2857 68.6094 38.019 67.3713 37.4857C66.1332 36.9524 65.0475 36.2191 64.1142 35.2858C63.1809 34.3334 62.4476 33.2382 61.9142 32.0001C61.4 30.743 61.1428 29.4002 61.1428 27.9716C61.1428 26.5431 61.4 25.2098 61.9142 23.9717C62.4476 22.7336 63.1714 21.6479 64.0856 20.7146C65.0189 19.7623 66.0951 19.029 67.3141 18.5147C68.5522 17.9814 69.8855 17.7147 71.3141 17.7147C72.7426 17.7147 74.0664 17.9814 75.2854 18.5147C76.5235 19.029 77.6092 19.7623 78.5425 20.7146C79.4758 21.6479 80.1996 22.7432 80.7139 24.0003C81.2472 25.2384 81.5139 26.5717 81.5139 28.0002C81.5139 29.4287 81.2472 30.7716 80.7139 32.0287C80.1996 33.2668 79.4758 34.3525 78.5425 35.2858C77.6282 36.2191 76.552 36.9524 75.314 37.4857C74.095 38.019 72.7807 38.2857 71.3712 38.2857ZM71.3141 35.1429C72.6664 35.1429 73.8473 34.8382 74.8568 34.2286C75.8854 33.6191 76.6854 32.7811 77.2568 31.7144C77.8473 30.6287 78.1425 29.3811 78.1425 27.9716C78.1425 26.924 77.9711 25.9717 77.6282 25.1145C77.3044 24.2384 76.8378 23.486 76.2282 22.8574C75.6187 22.2098 74.8949 21.7146 74.0569 21.3718C73.2378 21.0289 72.3236 20.8575 71.3141 20.8575C69.9808 20.8575 68.7998 21.1622 67.7713 21.7718C66.7618 22.3622 65.9618 23.1908 65.3713 24.2574C64.7999 25.3241 64.5142 26.5621 64.5142 27.9716C64.5142 29.0192 64.6761 29.9906 64.9999 30.8859C65.3427 31.762 65.8094 32.5144 66.3999 33.143C67.0094 33.7715 67.7332 34.2667 68.5713 34.6286C69.4093 34.9715 70.3236 35.1429 71.3141 35.1429ZM84.4265 38V24.286H87.5693V38H84.4265ZM93.5406 38V29.8287C93.5406 28.9145 93.2549 28.2097 92.6835 27.7145C92.1121 27.2002 91.4073 26.9431 90.5693 26.9431C89.9978 26.9431 89.4836 27.0574 89.0264 27.2859C88.5883 27.5145 88.236 27.8478 87.9693 28.2859C87.7026 28.7049 87.5693 29.2192 87.5693 29.8287L86.3408 29.143C86.3408 28.0954 86.5693 27.1907 87.0265 26.4288C87.4836 25.6669 88.1026 25.0765 88.8836 24.6574C89.6645 24.2193 90.5407 24.0003 91.5121 24.0003C92.4835 24.0003 93.3597 24.2098 94.1406 24.6288C94.9215 25.0479 95.5406 25.6383 95.9977 26.4002C96.4548 27.1621 96.6834 28.0764 96.6834 29.143V38H93.5406ZM102.655 38V29.8287C102.655 28.9145 102.369 28.2097 101.798 27.7145C101.226 27.2002 100.521 26.9431 99.6834 26.9431C99.131 26.9431 98.6262 27.0574 98.1691 27.2859C97.712 27.5145 97.3501 27.8478 97.0834 28.2859C96.8167 28.7049 96.6834 29.2192 96.6834 29.8287L94.912 29.143C95.0073 28.0954 95.312 27.1907 95.8263 26.4288C96.3406 25.6669 96.9977 25.0765 97.7977 24.6574C98.6167 24.2193 99.5119 24.0003 100.483 24.0003C101.474 24.0003 102.369 24.2098 103.169 24.6288C103.969 25.0479 104.607 25.6383 105.083 26.4002C105.559 27.1621 105.798 28.0764 105.798 29.143V38H102.655ZM118.435 38V30.0859C118.435 29.1716 118.14 28.4192 117.55 27.8288C116.978 27.2383 116.235 26.9431 115.321 26.9431C114.711 26.9431 114.169 27.0764 113.692 27.3431C113.216 27.6097 112.845 27.9812 112.578 28.4573C112.312 28.9335 112.178 29.4764 112.178 30.0859L110.95 29.4002C110.95 28.3526 111.178 27.4288 111.635 26.6288C112.092 25.8098 112.721 25.1717 113.521 24.7146C114.34 24.2384 115.254 24.0003 116.264 24.0003C117.292 24.0003 118.207 24.2669 119.007 24.8003C119.807 25.3145 120.435 25.9907 120.892 26.8288C121.349 27.6478 121.578 28.505 121.578 29.4002V38H118.435ZM109.035 38V24.286H112.178V38H109.035ZM124.8 38V24.286H127.943V38H124.8ZM126.372 21.7718C125.838 21.7718 125.391 21.5908 125.029 21.2289C124.686 20.867 124.515 20.4194 124.515 19.8861C124.515 19.3528 124.686 18.9051 125.029 18.5432C125.391 18.1814 125.838 18.0004 126.372 18.0004C126.924 18.0004 127.372 18.1814 127.714 18.5432C128.057 18.9051 128.229 19.3528 128.229 19.8861C128.229 20.4194 128.057 20.867 127.714 21.2289C127.372 21.5908 126.924 21.7718 126.372 21.7718ZM137.782 38.2857C136.43 38.2857 135.201 37.9714 134.096 37.3429C133.011 36.7143 132.154 35.8572 131.525 34.7715C130.897 33.6858 130.582 32.4763 130.582 31.143C130.582 29.7906 130.897 28.5811 131.525 27.5145C132.154 26.4288 133.011 25.5717 134.096 24.9431C135.201 24.3146 136.43 24.0003 137.782 24.0003C138.849 24.0003 139.839 24.2098 140.754 24.6288C141.687 25.0288 142.477 25.6098 143.125 26.3717L141.068 28.4573C140.668 27.9812 140.182 27.6288 139.611 27.4002C139.058 27.1526 138.449 27.0288 137.782 27.0288C137.001 27.0288 136.306 27.2097 135.696 27.5716C135.106 27.9145 134.639 28.3907 134.296 29.0002C133.973 29.6097 133.811 30.324 133.811 31.143C133.811 31.943 133.973 32.6573 134.296 33.2858C134.639 33.8953 135.106 34.381 135.696 34.7429C136.306 35.0858 137.001 35.2572 137.782 35.2572C138.449 35.2572 139.058 35.1429 139.611 34.9143C140.182 34.6667 140.668 34.3048 141.068 33.8287L143.125 35.9143C142.477 36.6762 141.687 37.2667 140.754 37.6857C139.839 38.0857 138.849 38.2857 137.782 38.2857ZM151.019 38.2857C149.857 38.2857 148.819 38.0286 147.905 37.5143C147.01 37 146.305 36.2953 145.791 35.4001C145.295 34.4858 145.048 33.4382 145.048 32.2573V24.286H148.191V32.1144C148.191 32.7811 148.295 33.3525 148.505 33.8287C148.733 34.2858 149.057 34.6382 149.476 34.8858C149.914 35.1334 150.429 35.2572 151.019 35.2572C151.933 35.2572 152.629 34.9905 153.105 34.4572C153.6 33.9048 153.848 33.1239 153.848 32.1144V24.286H156.99V32.2573C156.99 33.4572 156.733 34.5144 156.219 35.4286C155.724 36.3238 155.029 37.0286 154.133 37.5429C153.238 38.0381 152.2 38.2857 151.019 38.2857ZM160.15 38V24.286H163.293V38H160.15ZM163.293 30.3716L162.208 29.8287C162.208 28.0954 162.588 26.6955 163.35 25.6288C164.131 24.5431 165.303 24.0003 166.865 24.0003C167.55 24.0003 168.169 24.1241 168.722 24.3717C169.274 24.6193 169.788 25.0193 170.265 25.5717L168.207 27.6859C167.96 27.4193 167.684 27.2288 167.379 27.1145C167.074 27.0002 166.722 26.9431 166.322 26.9431C165.446 26.9431 164.722 27.2193 164.15 27.7716C163.579 28.324 163.293 29.1907 163.293 30.3716ZM177.738 38.2857C176.367 38.2857 175.129 37.981 174.024 37.3714C172.938 36.7429 172.071 35.8858 171.424 34.8001C170.795 33.7144 170.481 32.4953 170.481 31.143C170.481 29.7906 170.795 28.5811 171.424 27.5145C172.052 26.4288 172.9 25.5717 173.967 24.9431C175.052 24.3146 176.252 24.0003 177.567 24.0003C178.843 24.0003 179.967 24.2955 180.938 24.886C181.928 25.4764 182.7 26.2859 183.252 27.3145C183.824 28.3431 184.109 29.5145 184.109 30.8287C184.109 31.0573 184.09 31.2954 184.052 31.543C184.033 31.7716 183.995 32.0287 183.938 32.3144H172.681V29.743H182.309L181.138 30.7716C181.1 29.9335 180.938 29.2287 180.652 28.6573C180.367 28.0859 179.957 27.6478 179.424 27.3431C178.909 27.0383 178.271 26.8859 177.509 26.8859C176.709 26.8859 176.014 27.0574 175.424 27.4002C174.833 27.7431 174.376 28.2288 174.052 28.8573C173.729 29.4668 173.567 30.2002 173.567 31.0573C173.567 31.9144 173.738 32.6668 174.081 33.3144C174.424 33.962 174.91 34.4667 175.538 34.8286C176.167 35.1715 176.89 35.3429 177.709 35.3429C178.414 35.3429 179.062 35.2191 179.652 34.9715C180.262 34.7239 180.776 34.362 181.195 33.8858L183.195 35.9143C182.528 36.6953 181.719 37.2857 180.767 37.6857C179.814 38.0857 178.805 38.2857 177.738 38.2857Z" fill="white"/>
<g clip-path="url(#clip0_2_2243)">
<path d="M6.11395 17.6822C2.64913 18.2859 0 21.3116 0 24.9317V32.2771H17.0526C16.6754 29.2863 15.5438 26.3916 13.5703 24.0655C13.0442 23.4444 12.465 22.8675 11.8332 22.3512L6.11395 17.6816V17.6822Z" fill="white"/>
<path d="M25 49.855H32.3775V32.2774H42.6318C46.6846 32.2774 50 28.9717 50 24.9319V17.5771H35.5702C33.7368 19.9469 32.3687 22.6757 31.4298 25.9372C29.9035 31.2541 29.7459 36.9383 27.7017 42.1067C26.5 45.1237 24.7717 47.5371 22.6667 49.479C23.3949 49.7241 24.1843 49.855 25 49.855Z" fill="white"/>
<path d="M32.3775 10.9575V7.35431C32.3775 3.31397 29.0528 -0.000488281 25 -0.000488281H17.6225V8.75309C18.4732 8.39452 19.4034 8.1937 20.3855 8.1937C24.1312 8.1937 27.1838 11.0972 27.4208 14.7696C28.9909 13.4052 30.6492 12.1287 32.3769 10.9569L32.3775 10.9575Z" fill="white"/>
<path d="M41.3683 8.96387C16.8944 24.8272 39.0263 46.515 6.85956 54.0007C22.4034 46.7251 23.0965 28.1766 13.4827 20.3415L22.895 23.2712C22.895 23.2712 29.6145 14.0188 41.3689 8.96445L41.3683 8.96387Z" fill="white"/>
<path d="M20.3861 10.8003C22.8332 10.8003 24.8248 12.7765 24.8248 15.2254C24.8248 17.6743 22.8338 19.6418 20.3861 19.6418C17.9384 19.6418 15.9473 17.6655 15.9473 15.2254C15.9473 12.7852 17.9384 10.8003 20.3861 10.8003Z" fill="white"/>
</g>
<defs>
<clipPath id="clip0_2_2243">
<rect width="50" height="54" fill="white"/>
</clipPath>
</defs>
</svg>
